<svg width="19" height="24" viewBox="0 0 19 24" fill="none" xmlns="http://www.w3.org/2000/svg">
<g clip-path="url(#clip0_2_1801)">
<path d="M2.57812 0C1.33594 0 0.328125 1.00781 0.328125 2.25V21.75C0.328125 22.9922 1.33594 24 2.57812 24H7.07812V20.25C7.07812 19.0078 8.08594 18 9.32812 18C10.5703 18 11.5781 19.0078 11.5781 20.25V24H16.0781C17.3203 24 18.3281 22.9922 18.3281 21.75V2.25C18.3281 1.00781 17.3203 0 16.0781 0H2.57812ZM3.32812 11.25C3.32812 10.8375 3.66563 10.5 4.07812 10.5H5.57812C5.99062 10.5 6.32812 10.8375 6.32812 11.25V12.75C6.32812 13.1625 5.99062 13.5 5.57812 13.5H4.07812C3.66563 13.5 3.32812 13.1625 3.32812 12.75V11.25ZM8.57812 10.5H10.0781C10.4906 10.5 10.8281 10.8375 10.8281 11.25V12.75C10.8281 13.1625 10.4906 13.5 10.0781 13.5H8.57812C8.16563 13.5 7.82812 13.1625 7.82812 12.75V11.25C7.82812 10.8375 8.16563 10.5 8.57812 10.5ZM12.3281 11.25C12.3281 10.8375 12.6656 10.5 13.0781 10.5H14.5781C14.9906 10.5 15.3281 10.8375 15.3281 11.25V12.75C15.3281 13.1625 14.9906 13.5 14.5781 13.5H13.0781C12.6656 13.5 12.3281 13.1625 12.3281 12.75V11.25ZM4.07812 4.5H5.57812C5.99062 4.5 6.32812 4.8375 6.32812 5.25V6.75C6.32812 7.1625 5.99062 7.5 5.57812 7.5H4.07812C3.66563 7.5 3.32812 7.1625 3.32812 6.75V5.25C3.32812 4.8375 3.66563 4.5 4.07812 4.5ZM7.82812 5.25C7.82812 4.8375 8.16563 4.5 8.57812 4.5H10.0781C10.4906 4.5 10.8281 4.8375 10.8281 5.25V6.75C10.8281 7.1625 10.4906 7.5 10.0781 7.5H8.57812C8.16563 7.5 7.82812 7.1625 7.82812 6.75V5.25ZM13.0781 4.5H14.5781C14.9906 4.5 15.3281 4.8375 15.3281 5.25V6.75C15.3281 7.1625 14.9906 7.5 14.5781 7.5H13.0781C12.6656 7.5 12.3281 7.1625 12.3281 6.75V5.25C12.3281 4.8375 12.6656 4.5 13.0781 4.5Z" fill="#1E3A8A"/>
</g>
<defs>
<clipPath id="clip0_2_1801">
<path d="M0.328125 0H18.3281V24H0.328125V0Z" fill="white"/>
</clipPath>
</defs>
</svg>
