<svg width="38" height="23" viewBox="0 0 38 23" fill="none" xmlns="http://www.w3.org/2000/svg">
<path d="M19.1992 1.74219L13.5273 6.33594C12.584 7.09766 12.4023 8.46875 13.1172 9.44727C13.873 10.4902 15.3438 10.6953 16.3574 9.9043L22.1758 5.38086C22.5859 5.06445 23.1719 5.13477 23.4941 5.54492C23.8164 5.95508 23.7402 6.54102 23.3301 6.86328L22.1055 7.8125L30.25 15.3125V4.25H30.209L29.9805 4.10352L25.7266 1.37891C24.8301 0.804688 23.7812 0.5 22.7148 0.5C21.4375 0.5 20.1953 0.939453 19.1992 1.74219ZM20.5352 9.03125L17.5059 11.3867C15.6602 12.8281 12.9824 12.4531 11.5996 10.5547C10.2988 8.76758 10.627 6.27148 12.3438 4.88281L17.2188 0.939453C16.5391 0.652344 15.8066 0.505859 15.0625 0.505859C13.9609 0.5 12.8887 0.828125 11.9688 1.4375L7.75 4.25V17.375H9.40234L14.7578 22.2617C15.9062 23.3105 17.6816 23.2285 18.7305 22.0801C19.0527 21.7227 19.2695 21.3066 19.3809 20.873L20.377 21.7871C21.5195 22.8359 23.3008 22.7598 24.3496 21.6172C24.6133 21.3301 24.8066 20.9961 24.9297 20.6504C26.0664 21.4121 27.6133 21.2539 28.5684 20.2109C29.6172 19.0684 29.541 17.2871 28.3984 16.2383L20.5352 9.03125ZM1.1875 4.25C0.671875 4.25 0.25 4.67188 0.25 5.1875V17.375C0.25 18.4121 1.08789 19.25 2.125 19.25H4C5.03711 19.25 5.875 18.4121 5.875 17.375V4.25H1.1875ZM3.0625 15.5C3.31114 15.5 3.5496 15.5988 3.72541 15.7746C3.90123 15.9504 4 16.1889 4 16.4375C4 16.6861 3.90123 16.9246 3.72541 17.1004C3.5496 17.2762 3.31114 17.375 3.0625 17.375C2.81386 17.375 2.5754 17.2762 2.39959 17.1004C2.22377 16.9246 2.125 16.6861 2.125 16.4375C2.125 16.1889 2.22377 15.9504 2.39959 15.7746C2.5754 15.5988 2.81386 15.5 3.0625 15.5ZM32.125 4.25V17.375C32.125 18.4121 32.9629 19.25 34 19.25H35.875C36.9121 19.25 37.75 18.4121 37.75 17.375V5.1875C37.75 4.67188 37.3281 4.25 36.8125 4.25H32.125ZM34 16.4375C34 16.1889 34.0988 15.9504 34.2746 15.7746C34.4504 15.5988 34.6889 15.5 34.9375 15.5C35.1861 15.5 35.4246 15.5988 35.6004 15.7746C35.7762 15.9504 35.875 16.1889 35.875 16.4375C35.875 16.6861 35.7762 16.9246 35.6004 17.1004C35.4246 17.2762 35.1861 17.375 34.9375 17.375C34.6889 17.375 34.4504 17.2762 34.2746 17.1004C34.0988 16.9246 34 16.6861 34 16.4375Z" fill="#D4AF37"/>
</svg>
