<svg width="19" height="24" viewBox="0 0 19 24" fill="none" xmlns="http://www.w3.org/2000/svg">
<path d="M15.2062 2.09056C15.4828 1.44837 15.2766 0.698373 14.7094 0.285873C14.1422 -0.126627 13.3687 -0.0891267 12.8391 0.370248L0.839052 10.8702C0.370302 11.2827 0.201552 11.9437 0.421865 12.5249C0.642177 13.1062 1.20468 13.4999 1.82811 13.4999H7.05468L3.44999 21.9093C3.17343 22.5515 3.37968 23.3015 3.94686 23.714C4.51405 24.1265 5.28749 24.089 5.81718 23.6296L17.8172 13.1296C18.2859 12.7171 18.4547 12.0562 18.2344 11.4749C18.0141 10.8937 17.4562 10.5046 16.8281 10.5046H11.6016L15.2062 2.09056Z" fill="#1E3A8A"/>
</svg>
