<svg width="30" height="31" viewBox="0 0 30 31" fill="none" xmlns="http://www.w3.org/2000/svg">
<path d="M12.3633 1.17818C12.0117 0.809035 11.4844 0.66841 10.9922 0.797316C10.5 0.926222 10.1191 1.3188 9.99023 1.81099L9.06445 5.4731L5.43164 4.44771C4.93945 4.30708 4.41211 4.44771 4.05469 4.80513C3.69726 5.16255 3.55664 5.68989 3.69726 6.18208L4.72265 9.81489L1.06055 10.7465C0.568358 10.8696 0.181639 11.2563 0.0468733 11.7485C-0.0878923 12.2407 0.0585921 12.7622 0.427733 13.1137L3.13476 15.7504L0.427733 18.3872C0.0585921 18.7387 -0.0820329 19.2661 0.0468733 19.7583C0.17578 20.2504 0.568358 20.6313 1.06055 20.7602L4.72265 21.686L3.69726 25.3188C3.55664 25.811 3.69726 26.3383 4.05469 26.6958C4.41211 27.0532 4.93945 27.1938 5.43164 27.0532L9.06445 26.0278L9.99023 29.6899C10.1133 30.1821 10.5 30.5688 10.9922 30.7036C11.4844 30.8383 12.0059 30.6918 12.3633 30.3286L15 27.6215L17.6367 30.3286C17.9941 30.6918 18.5156 30.8383 19.0078 30.7036C19.5 30.5688 19.8809 30.1821 20.0098 29.6899L20.9355 26.0278L24.5684 27.0532C25.0605 27.1938 25.5879 27.0532 25.9453 26.6958C26.3027 26.3383 26.4434 25.811 26.3027 25.3188L25.2773 21.686L28.9395 20.7602C29.4316 20.6372 29.8184 20.2504 29.9531 19.7583C30.0879 19.2661 29.9414 18.7446 29.5781 18.3872L26.8711 15.7504L29.5781 13.1137C29.9414 12.7563 30.0879 12.2348 29.9531 11.7426C29.8184 11.2504 29.4316 10.8696 28.9395 10.7407L25.2773 9.81489L26.3027 6.18208C26.4434 5.68989 26.3027 5.16255 25.9453 4.80513C25.5879 4.44771 25.0605 4.30708 24.5684 4.44771L20.9355 5.4731L20.0039 1.81099C19.8809 1.3188 19.4941 0.932081 19.002 0.797316C18.5098 0.66255 17.9883 0.809035 17.6367 1.17818L15 3.88521L12.3633 1.17818Z" fill="#D4AF37"/>
</svg>
