<svg width="25" height="24" viewBox="0 0 25 24" fill="none" xmlns="http://www.w3.org/2000/svg">
<path d="M4.34061 0.23445C3.8953 -0.112425 3.26249 -0.0702373 2.85936 0.3282L0.984361 2.2032C0.585923 2.60164 0.543736 3.23445 0.885923 3.68445L4.63592 8.55945C4.84686 8.83601 5.17967 9.00008 5.52655 9.00008H8.06249L13.1719 14.1095C12.4828 15.4688 12.7031 17.1751 13.8422 18.3095L19.0922 23.5595C19.6781 24.1454 20.6297 24.1454 21.2156 23.5595L24.2156 20.5595C24.8015 19.9735 24.8015 19.0219 24.2156 18.436L18.9656 13.186C17.8312 12.0516 16.125 11.8266 14.7656 12.5157L9.65624 7.40633V4.87508C9.65624 4.52351 9.49217 4.19539 9.21561 3.98445L4.34061 0.23445ZM1.58905 18.5673C0.993736 19.1626 0.656236 19.9735 0.656236 20.8173C0.656236 22.5751 2.08124 24.0001 3.83905 24.0001C4.6828 24.0001 5.49374 23.6626 6.08905 23.0673L11.6109 17.5454C11.2453 16.5657 11.189 15.5016 11.4422 14.4938L8.54998 11.6016L1.58905 18.5673ZM24.6562 6.75008C24.6562 6.25789 24.6047 5.77976 24.5062 5.32039C24.3937 4.79539 23.7515 4.65945 23.3719 5.03914L20.3765 8.03445C20.2359 8.17508 20.0437 8.25476 19.8469 8.25476H17.1562C16.7437 8.25476 16.4062 7.91726 16.4062 7.50476V4.80945C16.4062 4.61258 16.4859 4.42039 16.6265 4.27976L19.6219 1.28445C20.0015 0.904763 19.8656 0.262575 19.3406 0.150075C18.8765 0.0516377 18.3984 7.52097e-05 17.9062 7.52097e-05C14.1797 7.52097e-05 11.1562 3.02351 11.1562 6.75008V6.78758L15.1547 10.786C16.8422 10.3595 18.7078 10.8095 20.0297 12.1313L20.7656 12.8673C23.0625 11.7891 24.6562 9.45476 24.6562 6.75008ZM3.28124 20.2501C3.28124 19.9517 3.39976 19.6656 3.61074 19.4546C3.82172 19.2436 4.10787 19.1251 4.40624 19.1251C4.7046 19.1251 4.99075 19.2436 5.20173 19.4546C5.41271 19.6656 5.53124 19.9517 5.53124 20.2501C5.53124 20.5484 5.41271 20.8346 5.20173 21.0456C4.99075 21.2565 4.7046 21.3751 4.40624 21.3751C4.10787 21.3751 3.82172 21.2565 3.61074 21.0456C3.39976 20.8346 3.28124 20.5484 3.28124 20.2501Z" fill="#1E3A8A"/>
</svg>
