<svg width="14" height="14" viewBox="0 0 14 14" fill="none" xmlns="http://www.w3.org/2000/svg">
<path d="M7.00312 3.40586C5.01562 3.40586 3.41249 5.00898 3.41249 6.99648C3.41249 8.98398 5.01562 10.5871 7.00312 10.5871C8.99062 10.5871 10.5937 8.98398 10.5937 6.99648C10.5937 5.00898 8.99062 3.40586 7.00312 3.40586ZM7.00312 9.33086C5.71874 9.33086 4.66874 8.28398 4.66874 6.99648C4.66874 5.70898 5.71562 4.66211 7.00312 4.66211C8.29062 4.66211 9.33749 5.70898 9.33749 6.99648C9.33749 8.28398 8.28749 9.33086 7.00312 9.33086ZM11.5781 3.25898C11.5781 3.72461 11.2031 4.09648 10.7406 4.09648C10.275 4.09648 9.90312 3.72148 9.90312 3.25898C9.90312 2.79648 10.2781 2.42148 10.7406 2.42148C11.2031 2.42148 11.5781 2.79648 11.5781 3.25898ZM13.9562 4.10898C13.9031 2.98711 13.6469 1.99336 12.825 1.17461C12.0062 0.355859 11.0125 0.0996094 9.89062 0.0433594C8.73437 -0.0222656 5.26874 -0.0222656 4.11249 0.0433594C2.99374 0.0964844 1.99999 0.352734 1.17812 1.17148C0.356244 1.99023 0.103119 2.98398 0.0468689 4.10586C-0.0187561 5.26211 -0.0187561 8.72773 0.0468689 9.88398C0.0999939 11.0059 0.356244 11.9996 1.17812 12.8184C1.99999 13.6371 2.99062 13.8934 4.11249 13.9496C5.26874 14.0152 8.73437 14.0152 9.89062 13.9496C11.0125 13.8965 12.0062 13.6402 12.825 12.8184C13.6437 11.9996 13.9 11.0059 13.9562 9.88398C14.0219 8.72773 14.0219 5.26523 13.9562 4.10898ZM12.4625 11.1246C12.2187 11.7371 11.7469 12.209 11.1312 12.4559C10.2094 12.8215 8.02187 12.7371 7.00312 12.7371C5.98437 12.7371 3.79374 12.8184 2.87499 12.4559C2.26249 12.2121 1.79062 11.7402 1.54374 11.1246C1.17812 10.2027 1.26249 8.01523 1.26249 6.99648C1.26249 5.97773 1.18124 3.78711 1.54374 2.86836C1.78749 2.25586 2.25937 1.78398 2.87499 1.53711C3.79687 1.17148 5.98437 1.25586 7.00312 1.25586C8.02187 1.25586 10.2125 1.17461 11.1312 1.53711C11.7437 1.78086 12.2156 2.25273 12.4625 2.86836C12.8281 3.79023 12.7437 5.97773 12.7437 6.99648C12.7437 8.01523 12.8281 10.2059 12.4625 11.1246Z" fill="white"/>
</svg>
