<svg width="30" height="22" viewBox="0 0 30 22" fill="none" xmlns="http://www.w3.org/2000/svg">
<path d="M3 6.5C3 3.18594 5.68594 0.5 9 0.5H21C24.3141 0.5 27 3.18594 27 6.5V8.075C25.2891 8.42188 24 9.93594 24 11.75V14H6V11.75C6 9.93594 4.71094 8.42188 3 8.075V6.5ZM25.5 11.75C25.5 10.7703 26.1281 9.93594 27 9.62656C27.2344 9.54219 27.4875 9.5 27.75 9.5C28.9922 9.5 30 10.5078 30 11.75V20C30 20.8297 29.3297 21.5 28.5 21.5H27C26.1703 21.5 25.5 20.8297 25.5 20H4.5C4.5 20.8297 3.82969 21.5 3 21.5H1.5C0.670312 21.5 0 20.8297 0 20V11.75C0 10.5078 1.00781 9.5 2.25 9.5C2.5125 9.5 2.76562 9.54688 3 9.62656C3.87188 9.93594 4.5 10.7703 4.5 11.75V14V15.5H6H24H25.5V14V11.75Z" fill="#1E3A8A"/>
</svg>
