<svg width="22" height="24" viewBox="0 0 22 24" fill="none" xmlns="http://www.w3.org/2000/svg">
<g clip-path="url(#clip0_2_1816)">
<path d="M18.5 4.5V10.5H12.5V4.5H18.5ZM18.5 13.5V19.5H12.5V13.5H18.5ZM9.5 10.5H3.5V4.5H9.5V10.5ZM3.5 13.5H9.5V19.5H3.5V13.5ZM3.5 1.5C1.84531 1.5 0.5 2.84531 0.5 4.5V19.5C0.5 21.1547 1.84531 22.5 3.5 22.5H18.5C20.1547 22.5 21.5 21.1547 21.5 19.5V4.5C21.5 2.84531 20.1547 1.5 18.5 1.5H3.5Z" fill="#1E3A8A"/>
</g>
<defs>
<clipPath id="clip0_2_1816">
<path d="M0.5 0H21.5V24H0.5V0Z" fill="white"/>
</clipPath>
</defs>
</svg>
