<svg width="25" height="22" viewBox="0 0 25 22" fill="none" xmlns="http://www.w3.org/2000/svg">
<path d="M6.12658 0.584375C6.33752 0.298437 6.67502 0.125 7.03127 0.125H18.2813C18.6375 0.125 18.975 0.29375 19.186 0.584375L24.436 7.70938C24.7547 8.14062 24.7219 8.73594 24.3656 9.13437L13.4906 21.1344C13.2797 21.3688 12.975 21.5047 12.6563 21.5047C12.3375 21.5047 12.0375 21.3688 11.8219 21.1344L0.946892 9.13437C0.585955 8.73594 0.55783 8.14062 0.87658 7.70938L6.12658 0.584375ZM7.93127 2.45C7.77658 2.56719 7.73439 2.77812 7.83283 2.94219L10.5235 7.42344L3.62346 8C3.43127 8.01406 3.28127 8.17813 3.28127 8.375C3.28127 8.57187 3.43127 8.73125 3.62346 8.75L12.6235 9.5C12.6422 9.5 12.6656 9.5 12.6844 9.5L21.6844 8.75C21.8766 8.73594 22.0266 8.57187 22.0266 8.375C22.0266 8.17813 21.8766 8.01875 21.6844 8L14.7891 7.42813L17.4797 2.94687C17.5781 2.78281 17.536 2.56719 17.3813 2.45469C17.2266 2.34219 17.011 2.36094 16.8797 2.50156L12.6563 7.07187L8.43283 2.49687C8.30158 2.35625 8.08596 2.3375 7.93127 2.45Z" fill="#1E3A8A"/>
</svg>
