<svg width="25" height="24" viewBox="0 0 25 24" fill="none" xmlns="http://www.w3.org/2000/svg">
<path d="M11.2266 0.243555C11.925 -0.0798828 12.7312 -0.0798828 13.4297 0.243555L23.6766 4.97793C24.075 5.16074 24.3281 5.55918 24.3281 5.9998C24.3281 6.44043 24.075 6.83887 23.6766 7.02168L13.4297 11.7561C12.7312 12.0795 11.925 12.0795 11.2266 11.7561L0.979688 7.02168C0.58125 6.83418 0.328125 6.43574 0.328125 5.9998C0.328125 5.56387 0.58125 5.16074 0.979688 4.97793L11.2266 0.243555ZM21.1828 9.82481L23.6766 10.9779C24.075 11.1607 24.3281 11.5592 24.3281 11.9998C24.3281 12.4404 24.075 12.8389 23.6766 13.0217L13.4297 17.7561C12.7312 18.0795 11.925 18.0795 11.2266 17.7561L0.979688 13.0217C0.58125 12.8342 0.328125 12.4357 0.328125 11.9998C0.328125 11.5639 0.58125 11.1607 0.979688 10.9779L3.47344 9.82481L10.5984 13.1154C11.6953 13.6217 12.9609 13.6217 14.0578 13.1154L21.1828 9.82481ZM14.0578 19.1154L21.1828 15.8248L23.6766 16.9779C24.075 17.1607 24.3281 17.5592 24.3281 17.9998C24.3281 18.4404 24.075 18.8389 23.6766 19.0217L13.4297 23.7561C12.7312 24.0795 11.925 24.0795 11.2266 23.7561L0.979688 19.0217C0.58125 18.8342 0.328125 18.4357 0.328125 17.9998C0.328125 17.5639 0.58125 17.1607 0.979688 16.9779L3.47344 15.8248L10.5984 19.1154C11.6953 19.6217 12.9609 19.6217 14.0578 19.1154Z" fill="#1E3A8A"/>
</svg>
