<svg width="32" height="31" viewBox="0 0 32 31" fill="none" xmlns="http://www.w3.org/2000/svg">
<path d="M17.6934 1.80469C17.3828 1.16016 16.7266 0.75 16.0059 0.75C15.2852 0.75 14.6348 1.16016 14.3184 1.80469L10.5508 9.55664L2.13673 10.7988C1.43361 10.9043 0.847668 11.3965 0.630871 12.0703C0.414074 12.7441 0.589855 13.4883 1.09376 13.9863L7.19923 20.0273L5.75782 28.5645C5.64064 29.2676 5.93361 29.9824 6.51368 30.3984C7.09376 30.8145 7.86134 30.8672 8.49415 30.5332L16.0117 26.5195L23.5293 30.5332C24.1621 30.8672 24.9297 30.8203 25.5098 30.3984C26.0899 29.9766 26.3828 29.2676 26.2656 28.5645L24.8184 20.0273L30.9238 13.9863C31.4277 13.4883 31.6094 12.7441 31.3867 12.0703C31.1641 11.3965 30.584 10.9043 29.8809 10.7988L21.4609 9.55664L17.6934 1.80469Z" fill="#D4AF37"/>
</svg>
