<svg width="30" height="31" viewBox="0 0 30 31" fill="none" xmlns="http://www.w3.org/2000/svg">
<path d="M4.39453 5.14453L2.40234 3.15234C1.51758 2.26758 0 2.89453 0 4.14258V10.5938C0 11.373 0.626953 12 1.40625 12H7.85742C9.11133 12 9.73828 10.4824 8.85352 9.59766L7.04883 7.79297C9.08203 5.75977 11.8945 4.5 15 4.5C21.2109 4.5 26.25 9.53906 26.25 15.75C26.25 21.9609 21.2109 27 15 27C12.6094 27 10.3945 26.2559 8.57227 24.9844C7.72266 24.3926 6.55664 24.5977 5.95898 25.4473C5.36133 26.2969 5.57227 27.4629 6.42188 28.0605C8.85938 29.7539 11.8184 30.75 15 30.75C23.2852 30.75 30 24.0352 30 15.75C30 7.46484 23.2852 0.75 15 0.75C10.8574 0.75 7.10742 2.43164 4.39453 5.14453ZM15 8.25C14.2207 8.25 13.5938 8.87695 13.5938 9.65625V15.75C13.5938 16.125 13.7402 16.4824 14.0039 16.7461L18.2227 20.9648C18.7734 21.5156 19.6641 21.5156 20.209 20.9648C20.7539 20.4141 20.7598 19.5234 20.209 18.9785L16.4004 15.1699V9.65625C16.4004 8.87695 15.7734 8.25 14.9941 8.25H15Z" fill="#D4AF37"/>
</svg>
