<svg width="19" height="24" viewBox="0 0 19 24" fill="none" xmlns="http://www.w3.org/2000/svg">
<path d="M9.65625 24C4.6875 24 0.65625 19.9688 0.65625 15C0.65625 10.725 6.75938 2.70469 8.46563 0.548437C8.74688 0.196875 9.16406 0 9.61406 0H9.69844C10.1484 0 10.5656 0.196875 10.8469 0.548437C12.5531 2.70469 18.6562 10.725 18.6562 15C18.6562 19.9688 14.625 24 9.65625 24ZM5.15625 15.75C5.15625 15.3375 4.81875 15 4.40625 15C3.99375 15 3.65625 15.3375 3.65625 15.75C3.65625 18.6516 6.00469 21 8.90625 21C9.31875 21 9.65625 20.6625 9.65625 20.25C9.65625 19.8375 9.31875 19.5 8.90625 19.5C6.83437 19.5 5.15625 17.8219 5.15625 15.75Z" fill="#1E3A8A"/>
</svg>
